HIERARCHY
ROOT hip
{
  OFFSET 0 0 0
  CHANNELS 6 Xposition Yposition Zposition Zrotation Yrotation Xrotation
  JOINT abdomen
  {
    OFFSET 0 20.6881 -0.73152
    CHANNELS 3 Zrotation Xrotation Yrotation
    JOINT chest
    {
      OFFSET 0 11.7043 -0.48768
      CHANNELS 3 Zrotation Xrotation Yrotation
      JOINT neck
      {
        OFFSET 0 22.1894 -2.19456
        CHANNELS 3 Zrotation Xrotation Yrotation
        JOINT head
        {
          OFFSET -0.24384 7.07133 1.2192
          CHANNELS 3 Zrotation Xrotation Yrotation
          JOINT leftEye
          {
            OFFSET 4.14528 8.04674 8.04672
            CHANNELS 3 Zrotation Xrotation Yrotation
            End Site
            {
              OFFSET 1 0 0
            }
          }
          JOINT rightEye
          {
            OFFSET -3.6576 8.04674 8.04672
            CHANNELS 3 Zrotation Xrotation Yrotation
            End Site
            {
              OFFSET 1 0 0
            }
          }
        }
      }
      JOINT rCollar
      {
        OFFSET -2.68224 19.2634 -4.8768
        CHANNELS 3 Zrotation Xrotation Yrotation
        JOINT rShldr
        {
          OFFSET -8.77824 -1.95073 1.46304
          CHANNELS 3 Zrotation Xrotation Yrotation
          JOINT rForeArm
          {
            OFFSET -28.1742 -1.7115 0.48768
            CHANNELS 3 Zrotation Xrotation Yrotation
            JOINT rHand
            {
              OFFSET -22.5879 0.773209 7.07136
              CHANNELS 3 Zrotation Xrotation Yrotation
              JOINT rThumb1
              {
                OFFSET -1.2192 -0.487915 3.41376
                CHANNELS 3 Zrotation Xrotation Yrotation
                JOINT rThumb2
                {
                  OFFSET -3.37035 -0.52449 3.41376
                  CHANNELS 3 Zrotation Xrotation Yrotation
                  End Site
                  {
                    OFFSET -1.78271 -1.18214 1.43049
                  }
                }
              }
              JOINT rIndex1
              {
                OFFSET -7.75947 0.938293 5.60832
                CHANNELS 3 Zrotation Xrotation Yrotation
                JOINT rIndex2
                {
                  OFFSET -2.54057 -0.884171 1.56538
                  CHANNELS 3 Zrotation Xrotation Yrotation
                  End Site
                  {
                    OFFSET -1.62519 -0.234802 1.16502
                  }
                }
              }
              JOINT rMid1
              {
                OFFSET -8.24714 1.18213 3.41376
                CHANNELS 3 Zrotation Xrotation Yrotation
                JOINT rMid2
                {
                  OFFSET -3.10165 -0.590103 1.0647
                  CHANNELS 3 Zrotation Xrotation Yrotation
                  End Site
                  {
                    OFFSET -2.48547 -0.328903 0.83742
                  }
                }
              }
              JOINT rRing1
              {
                OFFSET -8.82822 0.546677 1.51678
                CHANNELS 3 Zrotation Xrotation Yrotation
                JOINT rRing2
                {
                  OFFSET -2.60934 -0.819778 -0.0198488
                  CHANNELS 3 Zrotation Xrotation Yrotation
                  End Site
                  {
                    OFFSET -2.33842 -0.294052 0.168128
                  }
                }
              }
              JOINT rPinky1
              {
                OFFSET -8.27202 -0.0477905 -0.4584
                CHANNELS 3 Zrotation Xrotation Yrotation
                JOINT rPinky2
                {
                  OFFSET -1.82734 -0.647385 -0.700984
                  CHANNELS 3 Zrotation Xrotation Yrotation
                  End Site
                  {
                    OFFSET -1.69225 -0.51767 -0.607171
                  }
                }
              }
            }
          }
        }
      }
      JOINT lCollar
      {
        OFFSET 2.68224 19.2634 -4.8768
        CHANNELS 3 Zrotation Xrotation Yrotation
        JOINT lShldr
        {
          OFFSET 8.77824 -1.95073 1.46304
          CHANNELS 3 Zrotation Xrotation Yrotation
          JOINT lForeArm
          {
            OFFSET 28.1742 -1.7115 0.48768
            CHANNELS 3 Zrotation Xrotation Yrotation
            JOINT lHand
            {
              OFFSET 22.5879 0.773209 7.07136
              CHANNELS 3 Zrotation Xrotation Yrotation
              JOINT lThumb1
              {
                OFFSET 1.2192 -0.487915 3.41376
                CHANNELS 3 Zrotation Xrotation Yrotation
                JOINT lThumb2
                {
                  OFFSET 3.37035 -0.52449 3.41376
                  CHANNELS 3 Zrotation Xrotation Yrotation
                  End Site
                  {
                    OFFSET 1.78271 -1.18214 1.43049
                  }
                }
              }
              JOINT lIndex1
              {
                OFFSET 7.75947 0.938293 5.60832
                CHANNELS 3 Zrotation Xrotation Yrotation
                JOINT lIndex2
                {
                  OFFSET 2.54057 -0.884171 1.56538
                  CHANNELS 3 Zrotation Xrotation Yrotation
                  End Site
                  {
                    OFFSET 1.62519 -0.234802 1.16502
                  }
                }
              }
              JOINT lMid1
              {
                OFFSET 8.24714 1.18213 3.41376
                CHANNELS 3 Zrotation Xrotation Yrotation
                JOINT lMid2
                {
                  OFFSET 3.10165 -0.590103 1.0647
                  CHANNELS 3 Zrotation Xrotation Yrotation
                  End Site
                  {
                    OFFSET 2.48547 -0.328903 0.83742
                  }
                }
              }
              JOINT lRing1
              {
                OFFSET 8.82822 0.546677 1.51678
                CHANNELS 3 Zrotation Xrotation Yrotation
                JOINT lRing2
                {
                  OFFSET 2.60934 -0.819778 -0.0198488
                  CHANNELS 3 Zrotation Xrotation Yrotation
                  End Site
                  {
                    OFFSET 2.33842 -0.294052 0.168128
                  }
                }
              }
              JOINT lPinky1
              {
                OFFSET 8.27202 -0.0477905 -0.4584
                CHANNELS 3 Zrotation Xrotation Yrotation
                JOINT lPinky2
                {
                  OFFSET 1.82734 -0.647385 -0.700984
                  CHANNELS 3 Zrotation Xrotation Yrotation
                  End Site
                  {
                    OFFSET 1.69225 -0.51767 -0.607171
                  }
                }
              }
            }
          }
        }
      }
    }
  }
  JOINT rButtock
  {
    OFFSET -8.77824 4.35084 1.2192
    CHANNELS 3 Zrotation Xrotation Yrotation
    JOINT rThigh
    {
      OFFSET 0 -1.70687 -2.19456
      CHANNELS 3 Zrotation Xrotation Yrotation
      JOINT rShin
      {
        OFFSET 0 -36.8199 0.73152
        CHANNELS 3 Zrotation Xrotation Yrotation
        JOINT rFoot
        {
          OFFSET 0.73152 -45.1104 -5.12064
          CHANNELS 3 Zrotation Xrotation Yrotation
          End Site
          {
            OFFSET -1.1221 -3.69964 12.103
          }
        }
      }
    }
  }
  JOINT lButtock
  {
    OFFSET 8.77824 4.35084 1.2192
    CHANNELS 3 Zrotation Xrotation Yrotation
    JOINT lThigh
    {
      OFFSET 0 -1.70687 -2.19456
      CHANNELS 3 Zrotation Xrotation Yrotation
      JOINT lShin
      {
        OFFSET 0 -36.8199 0.73152
        CHANNELS 3 Zrotation Xrotation Yrotation
        JOINT lFoot
        {
          OFFSET -0.73152 -45.1104 -5.12064
          CHANNELS 3 Zrotation Xrotation Yrotation
          End Site
          {
            OFFSET 1.1221 -3.69964 12.103
          }
        }
      }
    }
  }
}
MOTION
Frames:	8
Frame Time:	0.00833333
0.0 0.0 0.0 0.0 0.0 0.0 0.0 0.0 0.0 0.0 0.0 0.0 0.0 0.0 0.0 0.0 0.0 0.0 0.0 0.0 0.0 0.0 0.0 0.0 0.0 0.0 0.0 0.0 0.0 0.0 0.0 0.0 0.0 0.0 0.0 0.0 0.0 0.0 0.0 0.0 0.0 0.0 0.0 0.0 0.0 0.0 0.0 0.0 0.0 0.0 0.0 0.0 0.0 0.0 0.0 0.0 0.0 0.0 0.0 0.0 0.0 0.0 0.0 0.0 0.0 0.0 0.0 0.0 0.0 0.0 0.0 0.0 0.0 0.0 0.0 0.0 0.0 0.0 0.0 0.0 0.0 0.0 0.0 0.0 0.0 0.0 0.0 0.0 0.0 0.0 0.0 0.0 0.0 0.0 0.0 0.0 0.0 0.0 0.0 0.0 0.0 0.0 0.0 0.0 0.0 0.0 0.0 0.0 0.0 0.0 0.0 0.0 0.0 0.0 0.0 0.0 0.0 0.0 0.0 0.0 0.0 0.0 0.0 0.0 0.0 0.0 0.0 0.0 0.0 0.0 0.0 0.0
1.93332 58.1488 69.4033 0.0 -0.0 -0.0 -0.0 -4.771896 -180.0 0.0 -4.771896 -180.0 -7.853099 7.5271 -64.944314 10.127326 3.946214 65.111901 0.0 -0.0 -0.0 0.0 -0.0 -0.0 -157.371212 -17.927615 164.690685 97.404566 -73.807394 77.435132 -2.912274 34.837726 -28.86773 161.885155 -36.958233 139.134562 -9.681738 9.193547 2.243333 -138.579914 -42.191207 113.448819 -0.327682 0.529888 0.186114 -85.695195 47.983596 57.53226 68.983989 -80.15399 40.578188 -172.847867 -27.853179 140.578109 -145.118942 0.185466 -179.186604 22.328028 31.339835 -5.495609 1.482059 4.003653 1.360876 -161.745304 53.633975 -149.662464 153.979587 5.407385 -159.825069 -22.350708 -9.867401 -14.220984 133.921037 -69.888997 151.143252 -22.627165 -49.29066 -12.354752 -178.339583 -19.018756 -88.988607 77.662199 10.554865 -23.856212 117.258193 28.443591 -99.152717 145.540625 20.380354 -120.497551 160.826363 -7.141801 -143.31627 160.221009 -5.286901 -143.063529 145.099691 -1.522044 178.64987 -21.170937 6.497208 7.922226 113.837232 -39.284327 111.847609 5.224064 -22.335172 8.2609 -0.0 -0.0 -0.0 -0.0 0.0 -0.0 7.051593 4.103085 76.605942 -63.597938 -78.720114 -159.87178 -0.0 -0.0 -0.0 -0.0 0.0 -0.0 3.117632 1.327455 29.85905 -142.233061 -17.083429 25.887073
1.9321899999999999 58.1496 69.3982 0.0 -0.0 -0.0 -0.0 -4.771896 -180.0 0.0 -4.771896 -180.0 1.623142 -0.189429 9.30754 -1.571179 0.449346 -9.298695 0.0 -0.0 -0.0 0.0 -0.0 -0.0 -157.797051 -22.115459 165.467367 7.692151 19.157759 21.388322 -3.580481 -72.252499 -40.318392 164.521536 -31.738006 140.808674 -176.59845 -14.213085 89.690967 -172.618124 -9.243395 93.552295 -151.353117 -17.158427 121.133109 -55.461556 58.862446 49.342161 -160.673322 -6.667841 143.245105 -40.02527 58.631426 37.293122 -75.673382 -72.116249 -92.828895 15.952581 -6.308718 4.982641 -25.537984 -38.087442 -24.598474 1.672438 -0.001499 1.488417 155.513415 -3.574973 -161.85136 159.770402 -17.679501 -162.063386 -125.513093 -67.212566 -112.172459 88.932099 74.476938 -69.725075 1.583584 1.556255 -0.264275 8.468236 9.335952 -8.165421 -5.921393 -10.174578 2.968574 -1.487579 -0.247129 -1.87267 -23.903801 -61.333833 -1.399383 131.199778 48.146939 -117.749146 75.944678 -72.111289 93.113302 149.134343 7.854941 -164.952714 23.391137 -36.34947 22.493225 81.346491 -55.918048 79.96034 -0.0 -0.0 -0.0 -0.0 0.0 -0.0 7.051593 4.103085 76.605942 -63.597938 -78.720114 -159.87178 -0.0 -0.0 -0.0 -0.0 0.0 -0.0 3.117632 1.327455 29.85905 -142.233061 -17.083429 25.887073
1.9281299999999997 58.1498 69.3949 0.0 -0.0 -0.0 -0.0 0.0 -0.0 0.0 -0.0 -0.0 0.245875 19.608241 -158.802917 7.579128 18.139248 157.548848 -0.0 -0.0 0.0 -0.0 -0.0 0.0 -80.1661 68.371792 83.260848 -155.991316 -7.170251 179.492702 122.609956 -80.444742 85.610706 176.729101 2.080391 145.29294 -78.030619 38.689342 42.41267 -150.780244 -33.360425 83.031598 -140.763228 1.380556 116.229033 160.061229 -70.006768 95.109433 -39.289155 53.36602 32.877985 -8.715465 29.922457 4.286341 -145.118942 0.185466 -179.186604 22.275936 54.321656 -2.537391 12.988419 44.344312 10.761472 -43.686967 -48.127554 -41.948467 59.831151 -86.72152 81.631739 2.434977 8.527965 -18.150759 -174.197593 -65.008425 -136.566609 -172.161729 -12.158649 -144.397436 160.052267 2.213243 -88.877504 8.397132 -43.099495 -12.340573 162.783434 -37.706827 -122.63943 16.950009 45.838124 -17.996123 160.937898 -7.488186 -143.367502 -5.876777 1.675565 -0.564999 145.121957 1.974539 179.748654 139.180754 81.290089 -163.572917 26.564207 -38.860901 25.60587 -0.693785 -3.047044 -0.553917 -180.0 75.749642 -0.0 180.0 75.749642 0.0 -4.448635 2.724824 -46.699368 135.049084 -0.357589 -36.957345 -180.0 75.749642 -0.0 180.0 75.749642 0.0 4.448635 2.724824 46.699368 -135.049084 -0.357589 36.957345
1.92317 58.151799999999994 69.4025 0.0 -0.0 -0.0 -0.0 0.0 -0.0 0.0 -0.0 -0.0 0.245875 19.608241 -158.802917 7.579128 18.139248 157.548848 -0.0 -0.0 0.0 -0.0 -0.0 0.0 -80.1661 68.371792 83.260848 -155.991316 -7.170251 179.492702 122.609956 -80.444742 85.610706 176.729101 2.080391 145.29294 -103.199394 36.330979 60.111426 -130.723647 -16.827122 74.146641 -150.885782 -16.291449 120.978506 20.23344 2.984929 -10.870755 -36.036059 51.723116 29.832321 -7.315338 26.55537 3.155968 -0.014868 -1.323148 -0.415899 -162.085792 28.982967 166.890214 26.973563 80.122588 10.137824 -147.971869 9.251159 -139.706363 59.831151 -86.72152 81.631739 54.979218 64.894103 -59.783496 -2.537195 3.864266 -0.685025 2.701349 8.63846 0.092126 -175.880133 -21.257501 -88.493291 142.660905 13.268123 -76.547892 108.427673 34.160977 -91.742903 8.511647 37.622661 4.237811 36.036059 51.723116 -29.832321 -2.119974 -0.703382 2.702138 145.111314 -0.66852 178.918267 139.004734 -39.138362 172.040915 112.782157 -40.02393 110.810899 125.85145 -31.281464 126.604021 -0.0 -0.0 -0.0 -0.0 0.0 -0.0 7.051593 4.103085 76.605942 -5.507816 -43.348047 -92.569075 -0.0 -0.0 -0.0 -0.0 0.0 -0.0 3.117632 1.327455 29.85905 -142.233061 -17.083429 25.887073
1.9160999999999997 58.1535 69.4117 0.0 -0.0 -0.0 -0.0 -4.771896 -180.0 0.0 -4.771896 -180.0 0.245875 19.608241 -158.802917 7.579128 18.139248 157.548848 -0.0 -0.0 0.0 -0.0 -0.0 0.0 3.268835 -26.755826 -5.241683 -175.918906 -0.457875 172.993128 90.017038 72.101319 -106.718402 -154.675008 59.22028 130.680763 -12.926332 12.051571 3.310159 0.660806 0.620818 7.384984 -153.453439 -21.067684 121.744506 -55.636549 58.194959 49.998003 23.903801 -61.333833 1.399383 92.217021 -75.693659 64.776525 -145.099706 -1.521107 -178.650165 21.639022 58.378537 -1.205542 -55.228215 -50.540595 -53.897179 -7.729133 -24.486411 -8.432845 155.716846 -4.925325 -162.135615 155.826199 -4.270279 -161.778275 -70.991615 -70.109294 -56.730168 63.619812 72.529389 -45.661291 -71.831195 -48.263725 -25.791675 13.481713 -35.151688 28.367382 151.353117 -17.158427 -121.133109 18.07786 49.802241 -15.74776 160.09819 -4.901163 -142.968881 164.872465 -19.554283 -144.070269 145.119466 0.267753 179.212454 142.000614 76.54748 -167.020255 75.778902 -51.667921 74.249466 161.768359 72.961388 153.010927 -0.0 -0.0 -0.0 -0.0 0.0 -0.0 7.051593 4.103085 76.605942 -63.597938 -78.720114 -159.87178 -0.0 -0.0 -0.0 -0.0 0.0 -0.0 3.117632 1.327455 29.85905 -142.233061 -17.083429 25.887073
1.89694 58.1555 69.4205 0.0 -0.0 -0.0 -0.0 0.0 -0.0 0.0 -0.0 -0.0 0.245875 19.608241 -158.802917 7.579128 18.139248 157.548848 -0.0 -0.0 0.0 -0.0 -0.0 0.0 -80.1661 68.371792 83.260848 -69.635806 -86.478119 -91.127397 -3.62928 13.741484 0.280492 3.592129 -11.188636 0.736969 -89.136032 38.427358 50.299234 20.290113 -26.941174 22.348337 78.321937 -74.343583 30.812871 -164.622926 -24.151801 104.703932 -153.32078 13.628946 138.862343 -156.195357 7.507356 142.478404 0.000171 0.022601 0.007101 -166.768796 -45.786205 177.387945 -4.66183 -10.865904 -4.365617 -148.257565 7.617946 -143.175945 59.831151 -86.72152 81.631739 54.979218 64.894103 -59.783496 -2.537195 3.864266 -0.685025 2.701349 8.63846 0.092126 -175.880133 -21.257501 -88.493291 142.660905 13.268123 -76.547892 108.427673 34.160977 -91.742903 8.511647 37.622661 4.237811 36.036059 51.723116 -29.832321 -2.119974 -0.703382 2.702138 145.111314 -0.66852 178.918267 139.004734 -39.138362 172.040915 112.782157 -40.02393 110.810899 125.85145 -31.281464 126.604021 -0.0 -0.0 -0.0 -0.0 0.0 -0.0 7.051593 4.103085 76.605942 -5.507816 -43.348047 -92.569075 -0.0 -0.0 -0.0 -0.0 0.0 -0.0 3.117632 1.327455 29.85905 -142.233061 -17.083429 25.887073
1.87764 58.1578 69.4296 0.0 -0.0 -0.0 -0.0 -4.771896 -180.0 0.0 -4.771896 -180.0 2.348711 19.742543 -170.817555 5.72704 19.065302 169.446286 -0.0 -0.0 0.0 -0.0 -0.0 0.0 3.542039 -62.05305 -13.039183 89.936935 -79.914771 88.101791 5.537099 -50.098145 -32.356162 169.405005 -19.97594 143.362476 169.031334 -27.077921 86.617906 98.53686 -76.384169 75.901875 -148.886119 -12.609784 120.244776 23.669495 -5.964335 -12.543811 -160.09819 -4.901163 142.968881 -168.134772 -29.079471 143.976258 -145.119466 0.267753 -179.212454 -64.782888 -77.937461 -96.630994 -152.200278 37.330087 -147.582714 -152.171443 30.008872 -144.035727 142.586389 40.121077 -146.977594 149.931316 11.612085 -170.089039 80.952618 78.523219 -79.078914 -9.144583 -26.274045 -3.061927 177.747581 -15.324192 -89.569824 77.873739 8.680032 -24.562961 0.327682 0.529888 -0.186114 -83.08055 -60.655053 -42.014918 125.644075 49.839986 -115.274123 161.98001 -5.889388 -146.030258 -0.000474 0.063711 -0.020016 159.113659 -76.441973 171.691157 -44.735211 86.377934 5.369007 -12.847207 31.199695 -3.05299 -0.0 -0.0 -0.0 -0.0 0.0 -0.0 7.051593 4.103085 76.605942 -63.597938 -78.720114 -159.87178 -0.0 -0.0 -0.0 -0.0 0.0 -0.0 3.117632 1.327455 29.85905 -142.233061 -17.083429 25.887073
